<?xml version="1.0" standalone="no"?>
<!DOCTYPE svg PUBLIC "-//W3C//DTD SVG 20010904//EN"
 "http://www.w3.org/TR/2001/REC-SVG-20010904/DTD/svg10.dtd">
<svg version="1.0" xmlns="http://www.w3.org/2000/svg"
 width="1943.000000pt" height="1943.000000pt" viewBox="0 0 1943.000000 1943.000000"
 preserveAspectRatio="xMidYMid meet">
<metadata>
Created by potrace 1.11, written by Peter Selinger 2001-2013
</metadata>
<g transform="translate(0.000000,1943.000000) scale(0.100000,-0.100000)"
fill="#000000" stroke="none">
<path d="M9517 17912 c-47 -9 -157 -105 -190 -165 -26 -49 -61 -145 -87 -237
-10 -36 -33 -105 -50 -155 -17 -49 -38 -112 -47 -140 -9 -27 -29 -90 -45 -140
-16 -49 -38 -112 -48 -140 -10 -27 -33 -97 -50 -155 -18 -58 -40 -127 -50
-155 -10 -27 -26 -72 -35 -100 -54 -169 -65 -205 -80 -250 -80 -232 -107 -316
-115 -351 -5 -22 -15 -56 -24 -75 -8 -19 -31 -88 -51 -154 -21 -66 -43 -136
-51 -155 -7 -19 -29 -87 -49 -150 -21 -63 -45 -137 -55 -165 -11 -27 -22 -63
-26 -80 -4 -16 -17 -57 -29 -90 -12 -33 -46 -134 -75 -225 -29 -91 -62 -194
-75 -230 -36 -102 -77 -228 -129 -395 -25 -80 -44 -138 -76 -230 -9 -27 -34
-104 -55 -170 -21 -66 -56 -172 -77 -235 -22 -63 -48 -142 -58 -175 -9 -33
-34 -107 -54 -165 -21 -58 -43 -127 -51 -155 -15 -57 -67 -217 -83 -255 -6
-14 -25 -72 -42 -130 -18 -58 -42 -134 -55 -170 -24 -68 -43 -123 -75 -225
-10 -33 -28 -89 -41 -125 -48 -140 -99 -293 -120 -365 -9 -33 -34 -105 -54
-160 -20 -55 -40 -120 -46 -145 -5 -25 -21 -76 -35 -115 -56 -154 -73 -203
-94 -275 -12 -41 -32 -104 -45 -140 -12 -36 -51 -153 -85 -260 -35 -107 -81
-247 -103 -310 -21 -63 -44 -133 -49 -155 -6 -22 -18 -60 -28 -85 -10 -25 -35
-99 -56 -165 -21 -66 -55 -172 -77 -235 -21 -63 -47 -144 -57 -180 -10 -36
-33 -103 -50 -150 -18 -47 -40 -114 -50 -150 -10 -36 -32 -105 -50 -155 -18
-49 -38 -112 -46 -140 -8 -27 -22 -72 -33 -100 -10 -27 -33 -97 -50 -155 -18
-58 -43 -132 -56 -165 -12 -33 -26 -75 -30 -94 -9 -42 -51 -137 -64 -145 -5
-4 -19 7 -31 24 -12 16 -27 30 -35 30 -7 0 -60 35 -118 78 -57 43 -119 88
-138 100 -19 11 -45 32 -58 46 -14 14 -31 26 -38 26 -8 0 -26 12 -41 28 -15
15 -34 32 -43 37 -87 56 -119 79 -119 86 0 4 -15 12 -33 18 -18 6 -51 29 -72
51 -21 22 -54 45 -72 51 -18 6 -33 16 -33 24 0 7 -17 21 -37 30 -21 10 -58 34
-83 54 -25 20 -72 54 -104 76 -110 75 -121 82 -140 104 -11 11 -24 21 -31 21
-7 0 -20 9 -29 19 -10 11 -44 36 -76 56 -33 20 -66 48 -75 61 -8 13 -20 24
-26 24 -6 0 -24 11 -41 25 -16 14 -38 25 -48 25 -10 0 -25 11 -34 24 -8 14
-26 28 -38 32 -13 3 -43 23 -68 44 -25 20 -56 43 -70 50 -14 7 -48 33 -76 57
-28 23 -57 43 -63 43 -7 0 -23 11 -37 25 -14 14 -37 31 -52 39 -15 8 -47 32
-72 53 -25 22 -61 47 -80 56 -19 10 -52 33 -73 52 -21 19 -45 35 -52 35 -8 0
-22 11 -31 25 -9 14 -22 25 -29 25 -7 0 -43 25 -80 55 -36 30 -73 55 -80 55
-7 0 -20 11 -29 25 -10 14 -27 30 -39 34 -12 5 -45 27 -72 48 -28 22 -66 47
-85 56 -19 10 -55 35 -79 57 -24 22 -48 40 -53 40 -6 0 -31 18 -56 41 -26 23
-63 50 -82 60 -19 11 -53 33 -75 50 -22 16 -56 41 -77 54 -20 13 -39 28 -42
34 -3 5 -26 19 -50 31 -25 11 -62 39 -83 60 -21 22 -46 40 -55 40 -10 0 -22 9
-28 19 -5 11 -19 23 -31 26 -12 4 -28 13 -37 21 -10 8 -37 31 -62 52 -25 21
-58 46 -75 56 -16 11 -62 43 -102 72 -39 30 -74 54 -77 54 -8 0 -95 60 -121
83 -43 39 -107 87 -116 87 -4 0 -33 20 -63 45 -31 25 -62 45 -69 45 -15 0 -53
29 -101 78 -18 17 -38 32 -44 32 -7 0 -21 9 -32 20 -10 10 -37 28 -58 39 -21
11 -50 32 -63 46 -13 15 -42 35 -64 45 -22 10 -59 37 -83 60 -23 22 -56 46
-72 52 -17 5 -30 14 -30 19 0 11 -120 89 -138 89 -8 0 -24 8 -37 18 -13 11
-57 25 -97 31 -140 24 -260 -22 -348 -134 l-45 -57 -3 -120 c-5 -165 -2 -177
68 -252 55 -58 124 -111 415 -318 61 -43 166 -119 235 -168 69 -50 218 -157
332 -238 113 -81 275 -197 360 -258 84 -60 269 -193 411 -295 141 -101 288
-206 326 -234 73 -53 176 -126 481 -344 102 -72 229 -164 284 -204 54 -40 134
-97 178 -127 114 -79 655 -467 824 -590 79 -58 178 -130 221 -160 43 -30 152
-108 243 -175 91 -66 188 -136 217 -155 99 -67 446 -315 477 -341 l30 -27 -13
-63 c-7 -35 -21 -79 -31 -98 -9 -20 -21 -52 -25 -71 -4 -19 -25 -87 -47 -150
-21 -63 -45 -137 -53 -165 -8 -27 -30 -95 -50 -150 -20 -55 -44 -129 -55 -165
-19 -66 -47 -153 -79 -245 -50 -141 -86 -253 -123 -380 -11 -38 -24 -74 -28
-80 -4 -5 -13 -30 -20 -55 -6 -25 -22 -74 -34 -110 -13 -36 -38 -112 -56 -170
-17 -58 -41 -129 -52 -158 -12 -30 -25 -70 -29 -90 -7 -34 -120 -376 -175
-532 -33 -94 -54 -160 -65 -204 -5 -21 -22 -73 -38 -115 -40 -107 -60 -166
-81 -241 -20 -69 -39 -128 -102 -310 -22 -63 -46 -137 -53 -165 -7 -27 -33
-108 -58 -180 -89 -261 -129 -381 -147 -445 -10 -36 -32 -105 -50 -155 -17
-49 -40 -119 -50 -155 -11 -36 -24 -74 -29 -85 -5 -11 -13 -31 -16 -45 -3 -14
-19 -61 -34 -105 -16 -44 -55 -161 -86 -260 -32 -99 -76 -232 -97 -295 -22
-63 -46 -137 -53 -165 -18 -66 -64 -199 -88 -254 -26 -62 -28 -241 -2 -291 53
-104 160 -190 236 -190 29 0 51 -6 59 -15 7 -8 29 -15 50 -15 21 0 43 7 50 15
7 8 24 15 39 15 14 0 42 10 61 22 19 11 69 39 110 61 88 47 117 66 230 146 47
34 105 75 130 93 25 17 92 66 150 108 83 60 468 335 576 410 12 8 50 36 85 62
94 70 175 128 239 173 66 46 350 249 395 282 17 12 53 38 80 58 28 20 75 54
105 76 30 22 87 62 125 89 39 27 111 78 160 114 50 37 162 117 250 179 230
163 446 317 477 341 46 36 166 122 378 272 113 80 225 160 250 178 25 18 110
79 190 136 80 56 156 111 170 121 14 10 108 78 210 151 102 73 235 168 295
213 61 44 135 97 165 118 30 21 75 54 100 73 25 19 63 46 85 60 22 15 72 51
112 80 39 30 77 54 85 54 7 0 45 -24 84 -53 74 -54 99 -72 275 -197 58 -41
158 -113 223 -160 65 -47 128 -92 140 -100 73 -50 199 -140 247 -177 31 -24
106 -79 167 -121 61 -42 171 -120 244 -173 73 -53 155 -111 182 -130 28 -19
105 -74 172 -124 68 -49 208 -151 313 -225 105 -74 222 -157 260 -185 95 -69
234 -169 376 -270 66 -47 185 -132 265 -190 80 -57 198 -141 262 -187 65 -46
175 -125 245 -176 165 -119 310 -223 503 -360 85 -61 202 -145 260 -187 58
-42 146 -105 195 -140 50 -36 149 -107 220 -158 72 -52 157 -113 190 -135 33
-23 98 -76 145 -117 119 -107 120 -107 271 -106 150 0 163 5 249 89 67 66 90
124 90 228 0 63 -26 221 -39 239 -4 6 -29 78 -55 160 -27 83 -51 157 -56 165
-4 8 -15 42 -24 75 -9 33 -25 83 -35 110 -23 62 -45 128 -75 225 -13 41 -32
98 -41 125 -30 87 -37 109 -55 170 -10 33 -28 89 -40 125 -57 164 -73 211
-150 450 -45 140 -92 284 -105 320 -13 36 -28 86 -35 113 -7 26 -17 50 -21 53
-5 3 -9 14 -9 24 0 23 -76 252 -96 292 -8 15 -14 38 -14 52 0 22 -21 84 -83
245 -11 30 -24 70 -28 90 -4 20 -18 65 -30 101 -48 140 -68 199 -100 300 -32
103 -44 139 -88 270 -13 36 -31 92 -41 125 -25 79 -43 134 -94 285 -24 69 -60
179 -80 245 -21 66 -47 139 -57 163 -10 23 -19 54 -19 68 0 13 -7 41 -16 62
-21 49 -70 191 -94 272 -23 78 -55 177 -79 245 -36 99 -73 211 -81 245 -12 46
-47 153 -70 210 -10 25 -23 65 -30 90 -6 25 -19 68 -29 95 -51 140 -54 155
-34 177 10 11 95 74 188 141 94 66 207 147 252 181 46 34 98 71 115 84 127 90
370 264 493 352 80 58 166 119 189 135 24 17 95 67 157 112 63 45 256 183 429
307 173 124 392 281 485 349 94 68 214 155 269 193 54 38 111 78 126 89 16 11
82 58 147 104 65 46 181 130 258 185 77 56 151 109 165 118 14 10 90 64 170
122 80 58 185 133 234 168 49 35 135 97 191 138 105 77 188 136 350 250 51 36
121 85 154 110 97 71 154 112 212 153 434 305 524 379 555 454 9 21 14 73 14
153 0 108 -3 126 -24 168 -26 51 -94 120 -143 146 -43 22 -157 39 -208 32 -53
-8 -208 -86 -250 -125 -16 -16 -41 -34 -55 -41 -14 -7 -36 -22 -50 -32 -99
-76 -185 -138 -193 -138 -9 0 -36 -21 -102 -76 -25 -21 -210 -155 -375 -269
-55 -39 -93 -67 -151 -111 -30 -22 -65 -47 -79 -54 -14 -7 -50 -32 -80 -56
-60 -48 -174 -130 -290 -209 -119 -81 -294 -208 -305 -221 -15 -17 -121 -84
-133 -84 -6 0 -16 -9 -22 -19 -5 -11 -42 -41 -81 -68 -39 -26 -83 -57 -99 -68
-15 -11 -62 -45 -105 -75 -43 -30 -90 -64 -105 -75 -16 -11 -57 -40 -92 -64
-34 -24 -74 -53 -88 -65 -14 -12 -52 -40 -85 -62 -33 -21 -97 -67 -143 -102
-45 -34 -94 -68 -107 -74 -14 -6 -25 -14 -25 -18 0 -4 -37 -32 -82 -64 -46
-31 -114 -79 -153 -107 -38 -27 -86 -61 -105 -74 -67 -47 -142 -101 -292 -210
-153 -111 -214 -155 -278 -200 -38 -27 -87 -62 -136 -97 -18 -13 -67 -47 -110
-77 -44 -30 -98 -69 -120 -88 -23 -18 -67 -50 -98 -71 -56 -38 -253 -180 -329
-239 -23 -18 -57 -39 -74 -47 -18 -8 -33 -19 -33 -23 0 -5 -15 -17 -32 -28
-18 -10 -59 -38 -90 -62 -31 -24 -63 -43 -71 -43 -17 0 -33 34 -57 120 -21 75
-42 138 -75 230 -12 36 -39 119 -60 185 -20 66 -43 134 -50 150 -7 17 -16 46
-20 65 -4 19 -15 55 -25 80 -25 64 -82 239 -91 280 -4 19 -24 78 -44 130 -20
52 -42 120 -50 150 -7 30 -30 100 -50 155 -20 55 -41 118 -47 140 -5 22 -14
54 -20 70 -6 17 -24 68 -41 115 -16 47 -38 112 -48 145 -24 82 -56 177 -84
255 -12 36 -37 112 -55 170 -18 58 -41 126 -51 152 -11 26 -19 56 -19 68 0 11
-8 35 -17 53 -9 18 -27 68 -41 112 -39 132 -60 195 -97 300 -20 55 -40 121
-45 146 -5 26 -17 64 -28 85 -11 22 -25 59 -31 84 -7 25 -21 66 -31 92 -11 26
-20 58 -20 72 0 14 -11 49 -25 78 -24 53 -50 128 -84 248 -10 36 -27 88 -37
115 -57 161 -124 373 -124 393 0 7 -9 30 -20 52 -11 22 -20 49 -20 60 0 11 -9
39 -21 61 -11 23 -29 71 -39 107 -10 37 -26 90 -35 117 -31 89 -37 109 -61
185 -45 142 -56 175 -85 252 -16 42 -29 86 -29 98 0 11 -9 38 -20 60 -11 22
-20 51 -20 65 0 14 -7 39 -15 56 -9 16 -34 87 -56 157 -22 70 -51 156 -64 192
-31 87 -63 184 -80 245 -15 53 -45 148 -75 230 -28 79 -49 144 -76 230 -13 44
-40 125 -60 180 -20 55 -42 123 -49 151 -7 28 -19 66 -27 85 -8 19 -20 52 -25
74 -12 44 -43 136 -79 233 -13 34 -24 75 -24 90 0 15 -6 36 -14 47 -7 11 -23
54 -35 95 -12 41 -29 89 -37 107 -8 17 -14 39 -14 48 0 9 -9 37 -19 63 -21 51
-63 178 -86 257 -21 75 -54 172 -81 243 -13 34 -24 72 -24 83 0 11 -8 34 -17
52 -9 18 -22 55 -29 82 -11 47 -32 110 -74 230 -38 106 -71 211 -77 240 -3 17
-9 35 -13 40 -4 6 -20 51 -35 100 -15 50 -36 111 -46 137 -10 26 -19 56 -19
66 0 30 -56 149 -96 203 -21 28 -61 64 -97 86 l-62 38 -135 2 c-74 0 -152 -2
-173 -5z m183 -1390 c0 -20 11 -71 25 -112 13 -41 32 -97 40 -125 57 -181 100
-308 120 -361 13 -33 27 -78 31 -100 4 -21 13 -48 20 -59 6 -11 18 -47 25 -80
7 -33 20 -76 29 -95 9 -19 25 -62 35 -95 9 -33 21 -64 26 -70 5 -5 9 -18 9
-30 0 -11 21 -78 46 -150 25 -71 54 -157 63 -190 26 -88 61 -194 82 -245 10
-25 21 -61 25 -80 3 -19 14 -53 24 -75 10 -22 21 -56 24 -75 4 -19 15 -55 26
-80 10 -25 28 -79 40 -120 22 -72 188 -582 211 -645 6 -16 18 -52 26 -80 9
-27 23 -72 33 -100 50 -148 62 -185 79 -240 22 -68 39 -121 71 -215 12 -36 26
-82 31 -104 5 -21 16 -51 24 -67 8 -15 21 -52 29 -81 8 -29 24 -78 35 -108 12
-30 21 -63 21 -72 0 -10 8 -37 19 -61 21 -48 54 -146 76 -227 9 -30 24 -76 35
-102 11 -26 20 -56 20 -67 0 -11 11 -44 24 -73 13 -29 30 -77 36 -107 7 -29
19 -65 26 -80 8 -14 16 -42 19 -61 3 -19 12 -48 20 -65 18 -37 85 -244 85
-262 0 -7 9 -32 19 -56 11 -23 25 -60 31 -82 7 -22 19 -55 27 -74 7 -18 20
-59 28 -90 16 -63 58 -193 86 -263 11 -26 19 -56 19 -68 0 -12 6 -36 14 -53
18 -39 75 -201 85 -242 13 -51 62 -197 82 -247 10 -26 19 -58 19 -73 0 -14 10
-45 22 -68 11 -23 31 -78 44 -122 12 -44 27 -96 34 -115 48 -137 59 -168 65
-194 3 -15 14 -47 25 -70 10 -22 20 -57 23 -77 3 -20 14 -56 25 -80 11 -24 25
-64 32 -89 7 -25 19 -57 26 -73 8 -15 19 -46 24 -70 5 -23 27 -94 49 -157 23
-63 47 -140 55 -170 16 -59 46 -148 83 -247 13 -34 23 -69 23 -78 0 -9 6 -31
14 -48 19 -43 65 -183 76 -232 5 -22 20 -65 34 -96 14 -30 30 -78 35 -106 6
-27 17 -65 25 -84 8 -19 21 -54 29 -79 8 -25 21 -65 30 -90 42 -122 42 -119
10 -152 -30 -32 -60 -54 -188 -142 -44 -30 -120 -84 -170 -121 -99 -73 -125
-91 -211 -150 -33 -23 -117 -83 -187 -135 -71 -52 -148 -108 -172 -125 -24
-16 -95 -67 -158 -113 -63 -45 -142 -101 -175 -125 -190 -134 -357 -254 -427
-306 -76 -57 -103 -76 -291 -209 -45 -31 -140 -100 -212 -152 -73 -52 -145
-104 -162 -115 -17 -11 -88 -62 -158 -114 -115 -85 -151 -110 -230 -163 -43
-29 -95 -12 -177 57 -27 23 -72 56 -100 75 -27 18 -91 64 -141 102 -50 37 -96
68 -102 68 -6 0 -21 14 -34 30 -12 17 -26 30 -31 30 -10 0 -81 47 -152 100
-22 16 -66 46 -99 67 -32 21 -75 52 -95 69 -20 17 -58 46 -86 64 -27 18 -81
59 -120 89 -38 31 -82 61 -96 68 -14 6 -51 32 -82 57 -31 25 -60 46 -63 46 -8
0 -71 46 -152 110 -31 25 -69 51 -84 59 -16 8 -28 18 -28 23 0 5 -16 16 -35
24 -19 8 -35 19 -35 25 0 5 -15 17 -32 25 -36 16 -71 40 -139 97 -25 20 -49
37 -54 37 -7 0 -112 79 -191 144 -18 14 -36 26 -41 26 -5 0 -56 35 -114 78
-103 76 -120 88 -189 137 -19 13 -66 47 -105 75 -38 28 -83 58 -98 68 -16 9
-64 44 -107 77 -42 33 -92 68 -109 77 -44 24 -47 42 -18 101 14 29 28 74 31
101 3 27 12 57 20 65 7 9 16 30 19 46 12 65 20 91 32 105 7 8 16 35 20 60 4
25 13 55 21 67 13 20 38 100 51 163 3 14 11 32 18 40 7 8 15 37 18 63 2 26 12
56 20 65 9 10 23 45 30 78 8 33 22 75 32 94 10 19 22 59 26 88 4 30 15 62 23
71 9 10 16 32 16 50 0 17 11 54 25 81 13 26 27 68 31 92 3 24 17 65 30 92 13
28 24 61 24 75 0 15 10 42 22 61 12 19 25 59 29 89 4 30 16 66 27 80 10 14 22
49 26 76 4 28 18 70 32 94 15 27 24 60 24 87 0 24 3 44 8 44 9 0 38 61 34 73
-4 12 27 97 43 120 8 11 12 30 9 42 -3 13 5 41 19 68 14 26 33 77 42 114 9 38
23 78 31 90 8 13 16 43 19 68 2 26 14 59 25 76 12 16 20 37 19 46 -3 26 10 71
37 125 13 26 24 58 24 70 0 25 18 80 38 115 7 12 12 33 12 48 0 14 9 43 19 63
11 21 23 56 27 77 4 22 16 59 26 82 10 24 27 75 38 114 10 40 23 75 28 78 5 3
14 34 22 68 7 35 19 68 26 74 8 6 14 22 14 35 0 23 32 123 51 156 5 10 9 29 9
43 0 14 12 44 26 66 17 27 24 50 21 67 -3 15 6 47 24 83 16 32 29 71 29 86 0
16 9 46 19 66 11 21 25 62 32 90 7 29 16 56 21 62 4 5 8 19 8 31 0 12 7 27 15
34 8 7 15 27 15 44 0 18 9 49 20 71 11 22 20 47 20 57 0 10 4 26 9 36 16 32
33 87 43 137 6 28 21 71 34 96 13 26 24 56 24 68 0 12 9 40 19 64 11 23 25 69
32 102 7 33 17 67 24 75 6 8 17 40 24 70 7 30 22 71 33 90 11 19 22 50 23 68
2 18 13 51 24 73 12 22 21 51 21 64 0 24 6 41 40 120 10 23 20 54 23 70 8 50
30 115 39 115 4 0 8 14 8 30 0 30 2 36 34 97 9 17 16 44 16 60 0 15 9 48 20
72 11 24 20 50 20 59 0 22 19 78 47 138 12 28 23 62 23 75 1 13 9 42 20 64 11
22 19 46 20 54 0 19 19 77 42 127 10 22 18 47 18 54 0 19 47 162 76 230 12 30
26 75 29 100 3 24 12 51 19 60 7 8 18 40 26 70 7 30 24 77 36 105 13 27 24 61
24 75 0 14 9 43 20 65 11 22 20 48 20 58 0 10 11 46 24 80 13 34 30 80 36 102
7 22 21 62 31 89 11 27 19 57 19 67 0 11 11 42 25 71 14 28 25 63 25 77 0 31
21 92 38 109 6 7 12 24 12 36 0 13 14 56 30 96 17 40 30 81 30 90 0 10 11 42
24 70 14 29 22 59 19 66 -5 14 32 100 47 109 4 3 6 14 3 24 -6 23 14 64 28 56
5 -4 9 -23 9 -43z m-2981 -9431 c58 -43 144 -104 191 -136 47 -32 119 -84 160
-115 41 -31 107 -79 145 -106 179 -124 335 -235 428 -304 56 -41 185 -134 287
-206 274 -196 368 -263 547 -392 89 -64 185 -134 215 -154 29 -21 94 -67 143
-103 50 -36 125 -89 167 -118 109 -73 110 -81 16 -144 -52 -35 -118 -82 -211
-150 -21 -16 -86 -61 -145 -102 -59 -41 -132 -93 -162 -117 -30 -23 -131 -96
-225 -162 -93 -66 -201 -144 -240 -172 -38 -28 -173 -125 -300 -216 -126 -91
-281 -202 -344 -247 -63 -45 -165 -118 -227 -162 -62 -44 -168 -119 -236 -168
-68 -48 -183 -131 -256 -185 -74 -53 -161 -116 -194 -139 -227 -161 -519 -369
-608 -434 -58 -43 -133 -97 -167 -121 -34 -23 -153 -108 -263 -188 -111 -80
-215 -154 -230 -165 -15 -11 -58 -41 -94 -67 -38 -28 -68 -43 -72 -37 -3 6 3
17 14 25 11 8 23 29 27 47 4 17 14 43 22 55 8 13 12 34 9 47 -4 14 4 41 23 75
16 29 27 60 24 69 -2 10 9 43 26 75 19 35 31 71 31 95 0 23 8 48 20 64 11 14
23 47 26 74 4 26 17 67 30 90 14 24 24 58 24 81 0 25 9 52 23 74 13 19 27 55
30 81 4 26 18 70 33 98 18 36 24 61 20 80 -3 16 -1 31 4 34 19 12 52 88 47
107 -3 12 7 43 24 75 16 30 29 60 27 66 -3 20 13 81 27 97 13 16 26 62 26 94
0 10 11 36 25 57 14 23 25 56 26 80 1 25 11 55 26 77 14 22 22 44 19 59 -2 13
0 26 4 29 5 3 9 18 9 33 0 15 5 32 12 39 15 15 38 81 38 110 0 13 9 35 20 50
11 15 25 55 31 89 6 34 20 72 30 84 12 14 19 37 19 65 0 26 8 57 20 76 11 18
20 43 20 55 0 12 5 25 10 28 6 4 10 14 9 23 -3 26 11 70 27 83 8 6 14 27 14
47 0 19 11 54 24 76 13 23 26 65 30 95 4 30 15 65 26 78 10 13 21 43 25 66 6
40 11 55 40 122 8 17 16 51 20 77 3 25 14 55 24 67 10 11 21 44 24 73 4 29 13
58 20 63 8 6 18 28 22 50 5 22 9 45 11 52 7 36 29 89 41 102 9 9 13 25 9 42
-4 19 2 38 20 64 17 25 24 48 22 73 -1 21 3 37 10 40 7 2 12 10 12 18 0 8 7
26 16 39 9 13 13 33 9 44 -3 10 -1 22 5 26 5 3 10 19 10 35 0 16 5 32 10 35
15 9 40 74 40 104 0 14 10 42 22 61 12 19 25 61 29 93 4 32 14 66 22 75 8 9
20 42 27 72 7 30 21 71 32 90 14 23 20 52 19 84 -1 48 18 86 42 86 5 0 58 -35
116 -79z m6062 -3 c21 -43 39 -100 39 -122 0 -9 9 -36 20 -58 11 -23 20 -47
20 -52 0 -18 110 -357 135 -416 13 -30 26 -71 29 -91 2 -20 14 -57 25 -81 11
-25 25 -63 30 -84 13 -51 52 -168 80 -237 6 -15 11 -38 11 -50 0 -12 11 -45
24 -72 12 -28 29 -75 35 -105 7 -30 22 -73 32 -96 10 -22 19 -54 19 -70 0 -17
4 -34 10 -40 10 -10 69 -178 92 -259 6 -22 22 -68 35 -102 12 -34 23 -69 23
-78 0 -9 9 -37 20 -63 10 -26 24 -67 30 -92 7 -25 17 -58 24 -75 28 -68 69
-193 75 -230 4 -22 17 -58 28 -80 11 -22 23 -57 26 -79 3 -21 15 -55 25 -75
11 -20 23 -56 27 -80 4 -24 18 -68 31 -97 13 -30 24 -62 24 -72 0 -9 10 -37
21 -61 11 -25 21 -61 23 -81 2 -20 12 -52 21 -70 10 -19 25 -61 35 -94 10 -34
27 -82 38 -108 11 -25 18 -56 15 -67 -3 -12 2 -32 11 -46 19 -29 77 -193 95
-270 7 -27 16 -54 20 -60 4 -5 15 -37 25 -70 9 -33 26 -79 37 -103 10 -23 19
-54 19 -68 0 -14 9 -43 19 -65 11 -22 27 -70 36 -107 9 -37 21 -72 25 -77 5
-6 14 -33 21 -60 7 -28 22 -74 35 -102 15 -36 19 -55 12 -59 -6 -4 -16 0 -23
9 -7 10 -16 17 -22 17 -5 0 -43 26 -85 58 -42 31 -116 84 -163 117 -48 33
-101 72 -118 86 -18 15 -75 55 -127 91 -80 54 -146 102 -251 181 -33 25 -86
63 -144 102 -33 22 -87 60 -120 85 -33 25 -69 52 -81 60 -82 56 -226 159 -259
185 -22 18 -74 55 -115 83 -188 129 -225 155 -228 163 -2 5 -21 19 -43 31 -21
12 -39 25 -39 30 0 4 -14 15 -32 24 -17 9 -66 42 -107 74 -42 31 -87 63 -101
70 -14 7 -34 21 -45 31 -11 11 -51 42 -90 69 -164 116 -207 147 -256 180 -28
19 -68 49 -89 65 -22 17 -69 52 -107 78 -37 27 -111 80 -163 118 -52 38 -108
77 -123 87 -16 9 -69 46 -117 82 -100 73 -188 137 -269 194 -31 22 -70 51 -87
65 -17 14 -49 37 -72 51 -23 14 -70 46 -105 73 -34 26 -105 76 -157 111 -115
78 -180 133 -180 151 0 8 24 30 53 50 28 20 75 52 103 73 29 20 121 86 205
146 85 60 186 132 224 161 117 87 546 393 727 520 24 16 84 59 133 96 50 36
121 88 159 115 37 27 82 59 100 72 60 43 95 67 173 121 43 30 114 82 158 115
44 34 109 81 145 106 36 24 103 72 149 107 46 34 87 60 90 58 3 -2 13 -18 22
-37z"/>
</g>
</svg>
